<mxfile host="app.diagrams.net" agent="Mozilla/5.0 (Windows NT 10.0; Win64; x64) AppleWebKit/537.36 (KHTML, like Gecko) Chrome/136.0.0.0 Safari/537.36" version="27.0.9">
  <diagram name="Page-1" id="2YBvvXClWsGukQMizWep">
    <mxGraphModel dx="1042" dy="623" grid="1" gridSize="10" guides="1" tooltips="1" connect="1" arrows="1" fold="1" page="1" pageScale="1" pageWidth="850" pageHeight="1100" math="0" shadow="0">
      <root>
        <mxCell id="0" />
        <mxCell id="1" parent="0" />
        <mxCell id="3FaKWsDwJX4RuZHxHIgl-1" value="Actor" style="shape=umlActor;verticalLabelPosition=bottom;verticalAlign=top;html=1;outlineConnect=0;" parent="1" vertex="1">
          <mxGeometry x="40" y="40" width="30" height="60" as="geometry" />
        </mxCell>
        <mxCell id="3FaKWsDwJX4RuZHxHIgl-2" value="HomeScreen" style="rounded=0;whiteSpace=wrap;html=1;" parent="1" vertex="1">
          <mxGeometry x="120" y="40" width="90" height="20" as="geometry" />
        </mxCell>
        <mxCell id="3FaKWsDwJX4RuZHxHIgl-3" value="&amp;nbsp;DB" style="rounded=0;whiteSpace=wrap;html=1;" parent="1" vertex="1">
          <mxGeometry x="950" y="40" width="90" height="20" as="geometry" />
        </mxCell>
        <mxCell id="3FaKWsDwJX4RuZHxHIgl-4" value="ProfileScreen" style="rounded=0;whiteSpace=wrap;html=1;" parent="1" vertex="1">
          <mxGeometry x="540" y="40" width="110" height="20" as="geometry" />
        </mxCell>
        <mxCell id="3FaKWsDwJX4RuZHxHIgl-6" value="ProcessInfoScreen" style="rounded=0;whiteSpace=wrap;html=1;" parent="1" vertex="1">
          <mxGeometry x="670" y="40" width="120" height="20" as="geometry" />
        </mxCell>
        <mxCell id="3FaKWsDwJX4RuZHxHIgl-7" value="" style="endArrow=none;dashed=1;html=1;rounded=0;" parent="1" edge="1">
          <mxGeometry width="50" height="50" relative="1" as="geometry">
            <mxPoint x="50" y="480" as="sourcePoint" />
            <mxPoint x="50" y="130" as="targetPoint" />
          </mxGeometry>
        </mxCell>
        <mxCell id="3FaKWsDwJX4RuZHxHIgl-8" value="" style="endArrow=none;dashed=1;html=1;rounded=0;" parent="1" source="3FaKWsDwJX4RuZHxHIgl-33" edge="1">
          <mxGeometry width="50" height="50" relative="1" as="geometry">
            <mxPoint x="995" y="580" as="sourcePoint" />
            <mxPoint x="994.5" y="61" as="targetPoint" />
          </mxGeometry>
        </mxCell>
        <mxCell id="3FaKWsDwJX4RuZHxHIgl-9" value="" style="endArrow=none;dashed=1;html=1;rounded=0;entryX=0.5;entryY=1;entryDx=0;entryDy=0;" parent="1" source="3FaKWsDwJX4RuZHxHIgl-47" target="3FaKWsDwJX4RuZHxHIgl-6" edge="1">
          <mxGeometry width="50" height="50" relative="1" as="geometry">
            <mxPoint x="730" y="480" as="sourcePoint" />
            <mxPoint x="730" y="100" as="targetPoint" />
          </mxGeometry>
        </mxCell>
        <mxCell id="3FaKWsDwJX4RuZHxHIgl-10" value="" style="endArrow=none;dashed=1;html=1;rounded=0;entryX=0.5;entryY=1;entryDx=0;entryDy=0;" parent="1" source="3FaKWsDwJX4RuZHxHIgl-38" target="3FaKWsDwJX4RuZHxHIgl-4" edge="1">
          <mxGeometry width="50" height="50" relative="1" as="geometry">
            <mxPoint x="594.5" y="480" as="sourcePoint" />
            <mxPoint x="594.5" y="100" as="targetPoint" />
          </mxGeometry>
        </mxCell>
        <mxCell id="3FaKWsDwJX4RuZHxHIgl-11" value="" style="endArrow=none;dashed=1;html=1;rounded=0;entryX=0.5;entryY=1;entryDx=0;entryDy=0;" parent="1" source="3FaKWsDwJX4RuZHxHIgl-12" target="3FaKWsDwJX4RuZHxHIgl-2" edge="1">
          <mxGeometry width="50" height="50" relative="1" as="geometry">
            <mxPoint x="194.5" y="170" as="sourcePoint" />
            <mxPoint x="165" y="80" as="targetPoint" />
          </mxGeometry>
        </mxCell>
        <mxCell id="3FaKWsDwJX4RuZHxHIgl-13" value="" style="endArrow=none;dashed=1;html=1;rounded=0;" parent="1" target="3FaKWsDwJX4RuZHxHIgl-12" edge="1">
          <mxGeometry width="50" height="50" relative="1" as="geometry">
            <mxPoint x="164.5" y="480" as="sourcePoint" />
            <mxPoint x="164.5" y="200" as="targetPoint" />
          </mxGeometry>
        </mxCell>
        <mxCell id="3FaKWsDwJX4RuZHxHIgl-18" value="" style="endArrow=classic;html=1;rounded=0;" parent="1" edge="1">
          <mxGeometry width="50" height="50" relative="1" as="geometry">
            <mxPoint x="50" y="140" as="sourcePoint" />
            <mxPoint x="160" y="140" as="targetPoint" />
          </mxGeometry>
        </mxCell>
        <mxCell id="3FaKWsDwJX4RuZHxHIgl-19" value="Select Profile" style="text;html=1;align=center;verticalAlign=middle;resizable=0;points=[];autosize=1;strokeColor=none;fillColor=none;" parent="1" vertex="1">
          <mxGeometry x="65" y="118" width="90" height="30" as="geometry" />
        </mxCell>
        <mxCell id="3FaKWsDwJX4RuZHxHIgl-20" value="SmartParkAppClass" style="rounded=0;whiteSpace=wrap;html=1;" parent="1" vertex="1">
          <mxGeometry x="220" y="42" width="120" height="18" as="geometry" />
        </mxCell>
        <mxCell id="3FaKWsDwJX4RuZHxHIgl-12" value="" style="html=1;points=[[0,0,0,0,5],[0,1,0,0,-5],[1,0,0,0,5],[1,1,0,0,-5]];perimeter=orthogonalPerimeter;outlineConnect=0;targetShapes=umlLifeline;portConstraint=eastwest;newEdgeStyle={&quot;curved&quot;:0,&quot;rounded&quot;:0};fillColor=#0050ef;fontColor=#ffffff;strokeColor=#001DBC;" parent="1" vertex="1">
          <mxGeometry x="160" y="118" width="10" height="62" as="geometry" />
        </mxCell>
        <mxCell id="3FaKWsDwJX4RuZHxHIgl-24" value="" style="endArrow=none;dashed=1;html=1;rounded=0;entryX=0.5;entryY=1;entryDx=0;entryDy=0;" parent="1" source="3FaKWsDwJX4RuZHxHIgl-23" target="3FaKWsDwJX4RuZHxHIgl-20" edge="1">
          <mxGeometry width="50" height="50" relative="1" as="geometry">
            <mxPoint x="265" y="480" as="sourcePoint" />
            <mxPoint x="270" y="100" as="targetPoint" />
          </mxGeometry>
        </mxCell>
        <mxCell id="3FaKWsDwJX4RuZHxHIgl-25" value="" style="endArrow=none;dashed=1;html=1;rounded=0;" parent="1" target="3FaKWsDwJX4RuZHxHIgl-23" edge="1">
          <mxGeometry width="50" height="50" relative="1" as="geometry">
            <mxPoint x="279.5" y="485" as="sourcePoint" />
            <mxPoint x="279.5" y="125" as="targetPoint" />
          </mxGeometry>
        </mxCell>
        <mxCell id="3FaKWsDwJX4RuZHxHIgl-23" value="" style="html=1;points=[[0,0,0,0,5],[0,1,0,0,-5],[1,0,0,0,5],[1,1,0,0,-5]];perimeter=orthogonalPerimeter;outlineConnect=0;targetShapes=umlLifeline;portConstraint=eastwest;newEdgeStyle={&quot;curved&quot;:0,&quot;rounded&quot;:0};fillColor=#0050ef;fontColor=#ffffff;strokeColor=#001DBC;" parent="1" vertex="1">
          <mxGeometry x="275" y="80" width="10" height="40" as="geometry" />
        </mxCell>
        <mxCell id="3FaKWsDwJX4RuZHxHIgl-26" value="" style="endArrow=classic;html=1;rounded=0;entryX=1;entryY=0;entryDx=0;entryDy=5;entryPerimeter=0;" parent="1" edge="1">
          <mxGeometry width="50" height="50" relative="1" as="geometry">
            <mxPoint x="280" y="120" as="sourcePoint" />
            <mxPoint x="170" y="118" as="targetPoint" />
          </mxGeometry>
        </mxCell>
        <mxCell id="3FaKWsDwJX4RuZHxHIgl-27" value="&lt;font style=&quot;font-size: 10px;&quot;&gt;HomeScreen()&lt;/font&gt;" style="text;html=1;align=center;verticalAlign=middle;resizable=0;points=[];autosize=1;strokeColor=none;fillColor=none;" parent="1" vertex="1">
          <mxGeometry x="170" y="90" width="90" height="30" as="geometry" />
        </mxCell>
        <mxCell id="3FaKWsDwJX4RuZHxHIgl-29" value="" style="endArrow=classic;html=1;rounded=0;exitX=0.622;exitY=1;exitDx=0;exitDy=0;exitPerimeter=0;" parent="1" source="3FaKWsDwJX4RuZHxHIgl-12" target="1dAoIpSroz4cQhIIG3X7-3" edge="1">
          <mxGeometry width="50" height="50" relative="1" as="geometry">
            <mxPoint x="180" y="170" as="sourcePoint" />
            <mxPoint x="430" y="170" as="targetPoint" />
          </mxGeometry>
        </mxCell>
        <mxCell id="3FaKWsDwJX4RuZHxHIgl-31" value="go_to_profile()" style="text;html=1;align=center;verticalAlign=middle;resizable=0;points=[];autosize=1;strokeColor=none;fillColor=none;" parent="1" vertex="1">
          <mxGeometry x="285" y="148" width="100" height="30" as="geometry" />
        </mxCell>
        <mxCell id="3FaKWsDwJX4RuZHxHIgl-32" value="" style="endArrow=classic;html=1;rounded=0;" parent="1" edge="1">
          <mxGeometry width="50" height="50" relative="1" as="geometry">
            <mxPoint x="445" y="190" as="sourcePoint" />
            <mxPoint x="990" y="190" as="targetPoint" />
          </mxGeometry>
        </mxCell>
        <mxCell id="3FaKWsDwJX4RuZHxHIgl-34" value="Profile Data()" style="text;html=1;align=center;verticalAlign=middle;resizable=0;points=[];autosize=1;strokeColor=none;fillColor=none;" parent="1" vertex="1">
          <mxGeometry x="620" y="160" width="90" height="30" as="geometry" />
        </mxCell>
        <mxCell id="3FaKWsDwJX4RuZHxHIgl-36" value="return results" style="html=1;verticalAlign=bottom;endArrow=open;dashed=1;endSize=8;curved=0;rounded=0;" parent="1" edge="1">
          <mxGeometry x="0.211" relative="1" as="geometry">
            <mxPoint x="990" y="220" as="sourcePoint" />
            <mxPoint x="445" y="220" as="targetPoint" />
            <mxPoint as="offset" />
          </mxGeometry>
        </mxCell>
        <mxCell id="3FaKWsDwJX4RuZHxHIgl-37" value="" style="endArrow=classic;html=1;rounded=0;" parent="1" target="3FaKWsDwJX4RuZHxHIgl-38" edge="1">
          <mxGeometry width="50" height="50" relative="1" as="geometry">
            <mxPoint x="440" y="280" as="sourcePoint" />
            <mxPoint x="370" y="280" as="targetPoint" />
          </mxGeometry>
        </mxCell>
        <mxCell id="3FaKWsDwJX4RuZHxHIgl-39" value="" style="endArrow=none;dashed=1;html=1;rounded=0;entryX=0.5;entryY=1;entryDx=0;entryDy=0;" parent="1" target="3FaKWsDwJX4RuZHxHIgl-38" edge="1">
          <mxGeometry width="50" height="50" relative="1" as="geometry">
            <mxPoint x="595" y="680.7999877929688" as="sourcePoint" />
            <mxPoint x="595" y="60" as="targetPoint" />
          </mxGeometry>
        </mxCell>
        <mxCell id="3FaKWsDwJX4RuZHxHIgl-38" value="" style="html=1;points=[[0,0,0,0,5],[0,1,0,0,-5],[1,0,0,0,5],[1,1,0,0,-5]];perimeter=orthogonalPerimeter;outlineConnect=0;targetShapes=umlLifeline;portConstraint=eastwest;newEdgeStyle={&quot;curved&quot;:0,&quot;rounded&quot;:0};fillColor=#0050ef;fontColor=#ffffff;strokeColor=#001DBC;" parent="1" vertex="1">
          <mxGeometry x="590" y="270" width="10" height="50" as="geometry" />
        </mxCell>
        <mxCell id="3FaKWsDwJX4RuZHxHIgl-44" value="" style="endArrow=classic;html=1;rounded=0;entryX=0;entryY=0.6;entryDx=0;entryDy=0;entryPerimeter=0;" parent="1" target="3FaKWsDwJX4RuZHxHIgl-38" edge="1">
          <mxGeometry width="50" height="50" relative="1" as="geometry">
            <mxPoint x="50" y="300" as="sourcePoint" />
            <mxPoint x="380" y="300" as="targetPoint" />
          </mxGeometry>
        </mxCell>
        <mxCell id="3FaKWsDwJX4RuZHxHIgl-46" value="Select Edit" style="text;html=1;align=center;verticalAlign=middle;resizable=0;points=[];autosize=1;strokeColor=none;fillColor=none;" parent="1" vertex="1">
          <mxGeometry x="75" y="280" width="80" height="30" as="geometry" />
        </mxCell>
        <mxCell id="3FaKWsDwJX4RuZHxHIgl-48" value="" style="endArrow=none;dashed=1;html=1;rounded=0;entryX=0.5;entryY=1;entryDx=0;entryDy=0;" parent="1" target="3FaKWsDwJX4RuZHxHIgl-47" edge="1">
          <mxGeometry width="50" height="50" relative="1" as="geometry">
            <mxPoint x="730" y="480" as="sourcePoint" />
            <mxPoint x="730" y="61" as="targetPoint" />
          </mxGeometry>
        </mxCell>
        <mxCell id="3FaKWsDwJX4RuZHxHIgl-47" value="" style="html=1;points=[[0,0,0,0,5],[0,1,0,0,-5],[1,0,0,0,5],[1,1,0,0,-5]];perimeter=orthogonalPerimeter;outlineConnect=0;targetShapes=umlLifeline;portConstraint=eastwest;newEdgeStyle={&quot;curved&quot;:0,&quot;rounded&quot;:0};fillColor=#0050ef;fontColor=#ffffff;strokeColor=#001DBC;" parent="1" vertex="1">
          <mxGeometry x="725" y="320" width="10" height="290" as="geometry" />
        </mxCell>
        <mxCell id="3FaKWsDwJX4RuZHxHIgl-49" value="" style="endArrow=classic;html=1;rounded=0;" parent="1" target="3FaKWsDwJX4RuZHxHIgl-47" edge="1">
          <mxGeometry width="50" height="50" relative="1" as="geometry">
            <mxPoint x="600" y="320" as="sourcePoint" />
            <mxPoint x="650" y="270" as="targetPoint" />
          </mxGeometry>
        </mxCell>
        <mxCell id="3FaKWsDwJX4RuZHxHIgl-50" value="toggle_edit()" style="text;html=1;align=center;verticalAlign=middle;resizable=0;points=[];autosize=1;strokeColor=none;fillColor=none;" parent="1" vertex="1">
          <mxGeometry x="620" y="290" width="90" height="30" as="geometry" />
        </mxCell>
        <mxCell id="3FaKWsDwJX4RuZHxHIgl-51" value="" style="endArrow=classic;html=1;rounded=0;" parent="1" target="3FaKWsDwJX4RuZHxHIgl-47" edge="1">
          <mxGeometry width="50" height="50" relative="1" as="geometry">
            <mxPoint x="50" y="350" as="sourcePoint" />
            <mxPoint x="410" y="350" as="targetPoint" />
          </mxGeometry>
        </mxCell>
        <mxCell id="3FaKWsDwJX4RuZHxHIgl-52" value="change data &amp;amp; selectSave()" style="text;html=1;align=center;verticalAlign=middle;resizable=0;points=[];autosize=1;strokeColor=none;fillColor=none;" parent="1" vertex="1">
          <mxGeometry x="80" y="328" width="170" height="30" as="geometry" />
        </mxCell>
        <mxCell id="3FaKWsDwJX4RuZHxHIgl-59" value="self.show_error()" style="text;html=1;align=center;verticalAlign=middle;resizable=0;points=[];autosize=1;strokeColor=none;fillColor=none;" parent="1" vertex="1">
          <mxGeometry x="465" y="368" width="110" height="30" as="geometry" />
        </mxCell>
        <mxCell id="3FaKWsDwJX4RuZHxHIgl-61" value="" style="endArrow=classic;html=1;rounded=0;" parent="1" target="1dAoIpSroz4cQhIIG3X7-3" edge="1">
          <mxGeometry width="50" height="50" relative="1" as="geometry">
            <mxPoint x="735" y="370" as="sourcePoint" />
            <mxPoint x="770" y="400" as="targetPoint" />
            <Array as="points">
              <mxPoint x="640" y="370" />
              <mxPoint x="590" y="370" />
            </Array>
          </mxGeometry>
        </mxCell>
        <mxCell id="3FaKWsDwJX4RuZHxHIgl-62" value="" style="endArrow=classic;html=1;rounded=0;" parent="1" source="1dAoIpSroz4cQhIIG3X7-3" edge="1">
          <mxGeometry width="50" height="50" relative="1" as="geometry">
            <mxPoint x="735" y="474.5" as="sourcePoint" />
            <mxPoint x="990" y="474.5" as="targetPoint" />
          </mxGeometry>
        </mxCell>
        <mxCell id="3FaKWsDwJX4RuZHxHIgl-65" value="" style="endArrow=none;dashed=1;html=1;rounded=0;" parent="1" target="3FaKWsDwJX4RuZHxHIgl-64" edge="1">
          <mxGeometry width="50" height="50" relative="1" as="geometry">
            <mxPoint x="995" y="680" as="sourcePoint" />
            <mxPoint x="994.5" y="61" as="targetPoint" />
          </mxGeometry>
        </mxCell>
        <mxCell id="3FaKWsDwJX4RuZHxHIgl-64" value="" style="html=1;points=[[0,0,0,0,5],[0,1,0,0,-5],[1,0,0,0,5],[1,1,0,0,-5]];perimeter=orthogonalPerimeter;outlineConnect=0;targetShapes=umlLifeline;portConstraint=eastwest;newEdgeStyle={&quot;curved&quot;:0,&quot;rounded&quot;:0};fillColor=#0050ef;fontColor=#ffffff;strokeColor=#001DBC;" parent="1" vertex="1">
          <mxGeometry x="990" y="470" width="10" height="30" as="geometry" />
        </mxCell>
        <mxCell id="3FaKWsDwJX4RuZHxHIgl-66" value="updateInfo()" style="text;html=1;align=center;verticalAlign=middle;resizable=0;points=[];autosize=1;strokeColor=none;fillColor=none;" parent="1" vertex="1">
          <mxGeometry x="810" y="450" width="90" height="30" as="geometry" />
        </mxCell>
        <mxCell id="3FaKWsDwJX4RuZHxHIgl-70" value="alt" style="shape=umlFrame;whiteSpace=wrap;html=1;pointerEvents=0;" parent="1" vertex="1">
          <mxGeometry x="340" y="420" width="680" height="230" as="geometry" />
        </mxCell>
        <mxCell id="3FaKWsDwJX4RuZHxHIgl-72" value="[check ok]" style="text;html=1;align=center;verticalAlign=middle;resizable=0;points=[];autosize=1;strokeColor=none;fillColor=none;" parent="1" vertex="1">
          <mxGeometry x="445" y="440" width="80" height="30" as="geometry" />
        </mxCell>
        <mxCell id="3FaKWsDwJX4RuZHxHIgl-73" value="[else]" style="text;html=1;align=center;verticalAlign=middle;resizable=0;points=[];autosize=1;strokeColor=none;fillColor=none;" parent="1" vertex="1">
          <mxGeometry x="445" y="550" width="50" height="30" as="geometry" />
        </mxCell>
        <mxCell id="3FaKWsDwJX4RuZHxHIgl-74" value="" style="endArrow=none;dashed=1;html=1;rounded=0;" parent="1" edge="1">
          <mxGeometry width="50" height="50" relative="1" as="geometry">
            <mxPoint x="300" y="555" as="sourcePoint" />
            <mxPoint x="1030" y="555" as="targetPoint" />
            <Array as="points">
              <mxPoint x="890" y="555" />
            </Array>
          </mxGeometry>
        </mxCell>
        <mxCell id="3FaKWsDwJX4RuZHxHIgl-75" value="" style="endArrow=classic;html=1;rounded=0;" parent="1" source="1dAoIpSroz4cQhIIG3X7-3" target="3FaKWsDwJX4RuZHxHIgl-47" edge="1">
          <mxGeometry width="50" height="50" relative="1" as="geometry">
            <mxPoint x="740" y="600" as="sourcePoint" />
            <mxPoint x="790" y="550" as="targetPoint" />
            <Array as="points">
              <mxPoint x="590" y="600" />
              <mxPoint x="640" y="600" />
            </Array>
          </mxGeometry>
        </mxCell>
        <mxCell id="3FaKWsDwJX4RuZHxHIgl-76" value="show&lt;br&gt;&lt;div&gt;&amp;nbsp;&#39;&#39;False change&#39;&#39;&lt;/div&gt;" style="text;html=1;align=center;verticalAlign=middle;resizable=0;points=[];autosize=1;strokeColor=none;fillColor=none;" parent="1" vertex="1">
          <mxGeometry x="460" y="600" width="110" height="40" as="geometry" />
        </mxCell>
        <mxCell id="3FaKWsDwJX4RuZHxHIgl-77" value="" style="endArrow=classic;html=1;rounded=0;" parent="1" source="1dAoIpSroz4cQhIIG3X7-3" target="3FaKWsDwJX4RuZHxHIgl-47" edge="1">
          <mxGeometry width="50" height="50" relative="1" as="geometry">
            <mxPoint x="735" y="500" as="sourcePoint" />
            <mxPoint x="785" y="450" as="targetPoint" />
            <Array as="points">
              <mxPoint x="610" y="500" />
              <mxPoint x="680" y="500" />
            </Array>
          </mxGeometry>
        </mxCell>
        <mxCell id="3FaKWsDwJX4RuZHxHIgl-78" value="show&lt;br&gt;&lt;div&gt;&#39;&#39;Saved Changes&#39;&#39;&lt;/div&gt;" style="text;html=1;align=center;verticalAlign=middle;resizable=0;points=[];autosize=1;strokeColor=none;fillColor=none;" parent="1" vertex="1">
          <mxGeometry x="470" y="500" width="120" height="40" as="geometry" />
        </mxCell>
        <mxCell id="1dAoIpSroz4cQhIIG3X7-1" value="ProfileScreenClass" style="html=1;whiteSpace=wrap;" parent="1" vertex="1">
          <mxGeometry x="380" y="38" width="120" height="22" as="geometry" />
        </mxCell>
        <mxCell id="1dAoIpSroz4cQhIIG3X7-2" value="" style="endArrow=none;dashed=1;html=1;rounded=0;" parent="1" source="1dAoIpSroz4cQhIIG3X7-3" edge="1">
          <mxGeometry width="50" height="50" relative="1" as="geometry">
            <mxPoint x="440" y="480" as="sourcePoint" />
            <mxPoint x="440" y="60" as="targetPoint" />
          </mxGeometry>
        </mxCell>
        <mxCell id="1dAoIpSroz4cQhIIG3X7-4" value="" style="endArrow=none;dashed=1;html=1;rounded=0;" parent="1" target="1dAoIpSroz4cQhIIG3X7-3" edge="1">
          <mxGeometry width="50" height="50" relative="1" as="geometry">
            <mxPoint x="440" y="680" as="sourcePoint" />
            <mxPoint x="440" y="60" as="targetPoint" />
          </mxGeometry>
        </mxCell>
        <mxCell id="1dAoIpSroz4cQhIIG3X7-3" value="" style="html=1;points=[[0,0,0,0,5],[0,1,0,0,-5],[1,0,0,0,5],[1,1,0,0,-5]];perimeter=orthogonalPerimeter;outlineConnect=0;targetShapes=umlLifeline;portConstraint=eastwest;newEdgeStyle={&quot;curved&quot;:0,&quot;rounded&quot;:0};fillColor=#0050ef;fontColor=#ffffff;strokeColor=#001DBC;" parent="1" vertex="1">
          <mxGeometry x="435" y="180" width="10" height="420" as="geometry" />
        </mxCell>
        <mxCell id="1dAoIpSroz4cQhIIG3X7-5" value="" style="endArrow=none;dashed=1;html=1;rounded=0;" parent="1" source="3FaKWsDwJX4RuZHxHIgl-64" target="3FaKWsDwJX4RuZHxHIgl-33" edge="1">
          <mxGeometry width="50" height="50" relative="1" as="geometry">
            <mxPoint x="995" y="470" as="sourcePoint" />
            <mxPoint x="994.5" y="61" as="targetPoint" />
          </mxGeometry>
        </mxCell>
        <mxCell id="3FaKWsDwJX4RuZHxHIgl-33" value="" style="html=1;points=[[0,0,0,0,5],[0,1,0,0,-5],[1,0,0,0,5],[1,1,0,0,-5]];perimeter=orthogonalPerimeter;outlineConnect=0;targetShapes=umlLifeline;portConstraint=eastwest;newEdgeStyle={&quot;curved&quot;:0,&quot;rounded&quot;:0};fillColor=#0050ef;fontColor=#ffffff;strokeColor=#001DBC;" parent="1" vertex="1">
          <mxGeometry x="990" y="190" width="10" height="30" as="geometry" />
        </mxCell>
        <mxCell id="IXKxxEaQ4sDTjG0DdjeG-3" value="_init_()" style="text;html=1;align=center;verticalAlign=middle;resizable=0;points=[];autosize=1;strokeColor=none;fillColor=none;" vertex="1" parent="1">
          <mxGeometry x="490" y="250" width="60" height="30" as="geometry" />
        </mxCell>
      </root>
    </mxGraphModel>
  </diagram>
</mxfile>
